<?xml version="1.0" encoding="utf-8"?>
<!-- Generator: Adobe Illustrator 19.0.0, SVG Export Plug-In . SVG Version: 6.00 Build 0)  -->
<svg version="1.1" id="Layer_1" xmlns="http://www.w3.org/2000/svg" xmlns:xlink="http://www.w3.org/1999/xlink" x="0px" y="0px"
	 viewBox="-221 381.4 168 30.6" style="enable-background:new -221 381.4 168 30.6;" xml:space="preserve">
<style type="text/css">
	.st0{fill:#FFFFFF;}
	.st1{fill:#40C1AC;}
	.st2{fill:url(#SVGID_1_);}
</style>
<g transform="translate(-65 -4679.93)">
	<path class="st0" d="M-72.3,5061.4c-0.5,0-1,0-1.4,0v3.3c0.5,0,1-0.1,1.4-0.1c6.7,0,12,5.4,12,12.1c0,6.7-5.4,12-12.1,12
		c-6.1,0-11.2-4.5-11.9-10.5h-3.3c0.8,8.4,8.3,14.6,16.7,13.7c8.4-0.8,14.6-8.3,13.7-16.7C-57.8,5067.3-64.4,5061.3-72.3,5061.4
		L-72.3,5061.4z M-20.5,5085.9h12.6v-3h-9.5v-4.8h7.8v-3.1h-7.8v-4.9h9.5v-3h-12.6V5085.9z M-148.3,5067.2l-7.7,18.7h3.5l1.7-4.1h7
		l1.7,4.1h3.5l-7.7-18.7H-148.3z M-149.8,5078.8l2.4-5.9l2.4,5.9H-149.8z M-131.8,5070.1h3.6v9.5c0,2.2-1.2,3.5-3.3,3.5
		c-0.9,0-1.8-0.3-2.4-1l-0.1-0.1l-2.2,2.2l0.1,0.1c1.2,1.2,3,1.9,4.7,1.8c4,0,6.4-2.5,6.4-6.8v-12.1h-6.7L-131.8,5070.1
		L-131.8,5070.1z M9.1,5079.9c1.9-1.2,3-3.4,2.9-5.7c0-4.2-3.3-7.1-8.3-7.1h-6.1v18.7h3.1v-4.6H6c0.5,0,0.9,0.3,1.1,0.7l1.6,3.9H12
		l-1.8-4.7C9.9,5080.7,9.6,5080.2,9.1,5079.9L9.1,5079.9z M3.9,5078.3H0.8v-8.2h3.2c3.7,0,5.1,2.1,5.1,4.1
		C9,5075.2,8.6,5078.3,3.9,5078.3L3.9,5078.3z M-33.5,5080.1l-3.9-10l0-0.1h-4.1l-4,10.1l-4.9-12.9l0-0.1h-3.4l7.4,18.7l0,0.1h1.9
		l5-12.4l5.1,12.4h1.8l7.5-18.7h-3.5L-33.5,5080.1z M-100.9,5067.2h-6.1v18.7h3.1v-4.6h3c5,0,8.3-2.8,8.3-7.1
		C-92.7,5070-96,5067.2-100.9,5067.2L-100.9,5067.2z M-100.8,5078.3h-3.2v-8.2h3.2c3.7,0,5.1,2.1,5.1,4.1
		C-95.7,5075.2-96,5078.3-100.8,5078.3L-100.8,5078.3z"/>
	<g transform="translate(-12.63 -48)">
		<path class="st1" d="M-71.7,5124.6c0-6.1,4.6-11.2,10.6-12v-3.3c-7.9,0.7-13.9,7.3-13.9,15.2c0,0.5,0,1,0.1,1.5h3.3
			C-71.7,5125.6-71.7,5125.1-71.7,5124.6z"/>
		<g transform="translate(426.643 -95.003)">
			
				<linearGradient id="SVGID_1_" gradientUnits="userSpaceOnUse" x1="-774.1815" y1="5593.7329" x2="-775.0754" y2="5592.9927" gradientTransform="matrix(13.97 0 0 -16.869 10327.7402 99565.3672)">
				<stop  offset="0" style="stop-color:#FFFFFF;stop-opacity:0"/>
				<stop  offset="1" style="stop-color:#FFFFFF"/>
			</linearGradient>
			<path class="st2" d="M-498.4,5219.6c0-6.1,4.6-11.3,10.7-12v-3.3c-7.9,0.7-14,7.4-14,15.3c0,0.5,0,1,0.1,1.5h3.3
				C-498.4,5220.6-498.4,5220.1-498.4,5219.6z"/>
			<path class="st0" d="M-487.9,5228.3h3v-7.2h7.2v-3h-7.2v-7.2h-3v7.2h-7.2v3h7.2V5228.3z M-486.4,5204.3c-0.5,0-1,0-1.4,0.1v3.3
				c6.6-0.8,12.6,3.9,13.4,10.5c0.8,6.6-3.9,12.6-10.5,13.4c-6.6,0.8-12.6-3.9-13.4-10.4h-3.3c0.9,8.4,8.4,14.5,16.8,13.7
				s14.5-8.4,13.7-16.8C-472,5210.2-478.6,5204.3-486.4,5204.3L-486.4,5204.3z"/>
		</g>
	</g>
</g>
</svg>
