<svg class="logo-svg" viewBox="0 0 180 39" id="logo_balticom">
            <path class="logo-color-1" d="M163.708,17.4a12.769,12.769,0,1,0,12.808,12.769A12.64,12.64,0,0,0,163.708,17.4Zm0,20.692c-4.678,0-7.439-3.615-7.439-7.923s2.761-7.923,7.439-7.923,7.439,3.615,7.439,7.923S168.386,38.092,163.708,38.092Z" transform="translate(-35.169 -4.015)"></path>
            <path class="logo-color-1" d="M78.356,38.785a6.714,6.714,0,0,1-7.056-7V2.4h5.522V30.477c0,2.308,1.15,3.538,3.375,3.538H80.5v4.769Z" transform="translate(-16.617 -0.554)"></path>
            <path class="logo-color-1" d="M103.377,40.4V20.785H92.947V32.169c0,2.308,1.15,3.538,3.375,3.538h2.071v4.769H94.481a6.714,6.714,0,0,1-7.056-7V20.785H82.9V16.015h4.525V9.4h5.522v6.615H108.9V40.477h-5.522Z" transform="translate(-19.321 -2.169)"></path>
            <path class="logo-color-1" d="M44.956,42.838c-3.144,0-8.666-2.385-8.36-8.615.23-4.692,3.835-7.846,8.82-7.769,5.292.154,7.976,2.538,7.976,2.538V26.685c0-2.769-2.3-4.462-6.059-4.462A22.11,22.11,0,0,0,40.2,23.838l-1.994-4A26.942,26.942,0,0,1,49.174,17.3c4.372,0,9.74,1.615,9.74,8.923V42.146H53.392v-3C53.469,39.3,50.324,42.838,44.956,42.838Zm-2.684-8.385c-.077,1.077.614,3.692,4.295,3.615,3.758-.077,6.826-3.692,6.826-4.077s-3.6-2.923-6.6-3.077C46.643,30.915,42.425,30.838,42.272,34.454Z" transform="translate(-8.526 -3.992)"></path>
            <path class="logo-color-1" d="M14.648,39.4c-5.829,0-9.127-4.846-9.127-4.846v4.231H0V2.4H5.522v16a12.619,12.619,0,0,1,9.587-4.462c7.516,0,10.737,6.923,10.737,12.615C25.846,35.477,19.557,39.4,14.648,39.4Zm-.767-20.308c-5.215,0-8.283,6.615-8.283,7.462s3.068,7.692,8.206,7.692c3.068,0,6.366-2.923,6.366-7.692S16.949,19.092,13.882,19.092Z" transform="translate(0 -0.554)"></path>
            <path class="logo-color-1" d="M218.317,42.246V26.708c0-2.462-1.15-3.769-3.221-3.769-2.991,0-6.366,3.692-6.366,3.692V42.246h-5.522V26.708c0-2.462-1.15-3.769-3.221-3.769-2.838,0-6.366,3.692-6.366,3.692V42.246H188.1V17.938h5.522v3.615s4.6-4.154,8.9-4.154c2.454,0,3.911.615,5.138,2.308a7.223,7.223,0,0,1,.844,1.923s4.448-4.231,9.127-4.231c2.454,0,3.911.692,5.138,2.385.92,1.231,1.074,3.077,1.074,6.385V42.246Z" transform="translate(-43.839 -4.015)"></path>
            <path class="logo-color-2" d="M111.848,10.538c-.844-.385-4.448-3-4.448-6.154A4.242,4.242,0,0,1,111.848,0,4.2,4.2,0,0,1,116.3,4.385C116.3,7.462,112.692,10.077,111.848,10.538Z" transform="translate(-25.031)"></path>
            <path class="logo-color-1" d="M133.985,38.115a7.594,7.594,0,0,1-7.593-7.923,7.55,7.55,0,0,1,7.593-7.923,7.843,7.843,0,0,1,5.522,2.462l4.065-3.077a13.178,13.178,0,0,0-9.587-4.154A12.7,12.7,0,0,0,121.1,30.269h0a12.7,12.7,0,0,0,12.885,12.769,13.178,13.178,0,0,0,9.587-4.154l-4.065-3.077A8.381,8.381,0,0,1,133.985,38.115Z" transform="translate(-28.224 -4.038)"></path>
          </svg>

          